<svg id="Layer_1" data-name="Layer 1" xmlns="http://www.w3.org/2000/svg" viewBox="0 0 1531.76 595.28"><defs><style>.cls-1{fill:#f15d5e;}.cls-2{fill:#94cd8c;}.cls-3{fill:#f2974e;}.cls-4{font-size:150px;fill:#fff;font-family:Montserrat-SemiBold, Montserrat;font-weight:600;}.cls-5{letter-spacing:-0.03em;}</style></defs><title>idunowatisdis</title><path class="cls-1" d="M453.35,265.88V403.05c0,14.61-7.77,22.34-22.49,22.34h-11.6c-13.5,0-21.52-8.12-21.52-21.74V316.46c0-6.66-.1-13.33.06-20,.06-2.62-.8-3.35-3.4-3.4-14.91-.3-17.18-2.71-17.16-17.74,0-23.46-.71-46.95.32-70.37,1.51-34.19,17.92-60.11,47.05-78,5-3.06,10.17-5.82,15.32-8.62,7.47-4.07,13.41-.56,13.41,7.93Q453.37,196.1,453.35,265.88Zm-15.63-58.37V141.94c0-4.46-.07-4.53-4-2.24C408,154.85,394,177.49,392.87,207.28c-.83,22.22-.12,44.51-.24,66.76,0,2.88.95,3.55,3.66,3.52,12.39-.12,24.79-.22,37.18,0,3.72.08,4.33-1.19,4.31-4.52C437.65,251.23,437.71,229.37,437.72,207.51ZM413.41,350.18q0,27,0,54c0,4.4,1.31,5.7,5.71,5.77,4,.06,8,0,12,0,5.52,0,6.58-1.05,6.58-6.51q0-28,0-56c0-16.92,0-33.85.06-50.78,0-2.79-.77-3.69-3.6-3.59-5.59.21-11.2.23-16.79,0-3.08-.13-4.08.7-4.05,3.94C413.49,314.73,413.41,332.46,413.41,350.18Z"/><path class="cls-2" d="M204.79,443.11c-83.59-.1-155.67-60.92-169.45-143-15.63-93,45.2-180.44,138.29-198.42a170.08,170.08,0,0,1,70.6,1.56c5.48,1.24,8,4.08,7.73,8.54-.29,5.16-4.72,8.12-10.37,6.82-15.55-3.56-31.25-5.22-47.2-3.84-54.08,4.69-95.73,30.14-123.83,76.37-56.4,92.82.1,215.72,107.16,234.12a157,157,0,0,0,82.16-7.51c7.13-2.63,11.23-1.49,13,3.6,1.72,4.83-.7,8.44-7.51,11A169.29,169.29,0,0,1,204.79,443.11Z"/><path class="cls-3" d="M287.78,346c0-20,0-40,0-60,0-6.92-.36-13.84-.39-20.77a6.84,6.84,0,0,0-4.36-6.88c-3.5-1.62-6.87-3.52-10.29-5.31-9.77-5.1-14.81-13.24-14.85-24.18-.12-28-.06-56,0-84,0-5.38,3.1-8.85,7.63-8.93,4.74-.09,7.92,3.45,7.92,9,0,27.32.11,54.65-.06,82,0,6.22,2.21,10.43,7.87,13,3.51,1.6,6.89,3.49,10.26,5.36,7.5,4.15,11.59,10.48,11.59,19.12q.07,69.57.05,139.13c0,5.13.86,6.22,4.92,6.37,4.59.18,5.79-.83,5.8-5.41.05-38,.17-76,0-114,0-8.48,0-17-.08-25.47s3.83-15.39,11.54-19.65q5.59-3.09,11.34-5.9c5.17-2.52,7.15-6.67,7.13-12.29-.08-26.8,0-53.59,0-80.38,0-1.33-.05-2.67.08-4a7.54,7.54,0,0,1,7.47-6.93,7.63,7.63,0,0,1,7.8,7c.1,1.06.06,2.14.06,3.2,0,27.19-.08,54.38,0,81.57.06,12.07-5.22,20.6-16,25.88-3.23,1.58-6.35,3.39-9.57,5a7.12,7.12,0,0,0-4.23,7.05q.06,70,0,139.94c0,10.34-6.68,18.25-16.32,19.65-12.18,1.77-21.5-3.31-24.64-13.37a26.15,26.15,0,0,1-.78-7.92q0-29,0-58Z"/><path class="cls-2" d="M203.47,146.88c1.6,0,3.2,0,4.8,0,4.78.16,7.88,3.22,7.87,7.71s-3.13,7.55-7.95,7.64a112.92,112.92,0,0,0-37.52,6.9c-45.34,16.77-74.93,63-70.6,110.43,4.54,49.77,41.08,90.07,89.37,98.48a116.51,116.51,0,0,0,17.89,1.7c5.53.1,8.78,2.95,8.81,7.61,0,4.91-3.28,7.77-9,7.77-58.19,0-110.25-43.43-120.66-100.66-12.1-66.59,28.73-129.11,94.47-144.58A111,111,0,0,1,203.47,146.88Z"/><path class="cls-3" d="M329.44,180.22c0,11.57,0,23.15,0,34.73,0,5.76-3.27,9.56-8,9.45s-7.58-3.69-7.59-9.41q-.06-34.92,0-69.86c0-5.67,3.07-9.18,7.75-9.19s7.78,3.57,7.8,9.15C329.47,156.8,329.45,168.51,329.44,180.22Z"/><path class="cls-3" d="M303.12,180.27c0,11.71,0,23.42,0,35.13,0,5.36-3,8.86-7.53,9s-7.85-3.39-7.86-8.67q-.08-35.52,0-71c0-5.39,3.14-8.77,7.73-8.75s7.63,3.46,7.65,8.81C303.14,156.59,303.12,168.43,303.12,180.27Z"/><text class="cls-4" transform="translate(517.61 338.39)"><tspan class="cls-5">F</tspan><tspan x="84.45" y="0">AM DINER</tspan></text></svg>